<svg width="1000" height="500" viewBox="0 0 1000 500" xmlns="http://www.w3.org/2000/svg">
  <!-- Background -->
  <rect width="1000" height="500" fill="#F8F9FA"/>
  
  <!-- Ocean/Water background -->
  <rect width="1000" height="500" fill="#E8F4FF" opacity="0.3"/>
  
  <!-- Simplified World Map Outlines -->
  <!-- North America -->
  <path d="M 150 120 L 180 110 L 220 115 L 250 125 L 270 140 L 280 160 L 290 180 L 285 200 L 275 220 L 260 235 L 240 245 L 220 250 L 200 248 L 180 242 L 165 235 L 155 220 L 148 200 L 145 180 L 147 160 L 150 140 Z" 
        fill="#DEE2E6" stroke="#ADB5BD" stroke-width="1"/>
  
  <!-- United States highlight -->
  <path d="M 165 165 L 190 160 L 220 165 L 245 175 L 260 190 L 265 205 L 260 220 L 240 230 L 215 232 L 190 228 L 170 220 L 160 205 L 158 185 Z" 
        fill="#0066CC" opacity="0.2" stroke="#0066CC" stroke-width="1.5"/>
  
  <!-- Canada highlight -->
  <path d="M 150 125 L 180 115 L 210 120 L 235 130 L 255 145 L 260 155 L 250 165 L 230 168 L 205 165 L 180 158 L 160 148 L 152 135 Z" 
        fill="#0066CC" opacity="0.2" stroke="#0066CC" stroke-width="1.5"/>
  
  <!-- South America -->
  <path d="M 280 270 L 300 265 L 320 270 L 335 285 L 345 310 L 350 340 L 345 370 L 335 395 L 320 410 L 300 418 L 280 415 L 265 405 L 255 385 L 250 360 L 252 330 L 260 300 L 270 280 Z" 
        fill="#DEE2E6" stroke="#ADB5BD" stroke-width="1"/>
  
  <!-- Europe -->
  <path d="M 480 120 L 510 115 L 540 120 L 565 130 L 580 145 L 585 165 L 580 185 L 565 200 L 540 208 L 515 210 L 490 205 L 470 195 L 460 180 L 458 160 L 465 140 Z" 
        fill="#DEE2E6" stroke="#ADB5BD" stroke-width="1"/>
  
  <!-- EU Countries highlight -->
  <path d="M 485 135 L 510 132 L 535 138 L 555 150 L 565 168 L 562 185 L 548 195 L 525 198 L 500 194 L 480 183 L 475 165 L 478 148 Z" 
        fill="#0066CC" opacity="0.2" stroke="#0066CC" stroke-width="1.5"/>
  
  <!-- UK highlight -->
  <path d="M 465 135 L 478 130 L 488 135 L 492 145 L 490 158 L 482 165 L 470 167 L 460 162 L 457 150 L 460 140 Z" 
        fill="#0066CC" opacity="0.2" stroke="#0066CC" stroke-width="1.5"/>
  
  <!-- Africa -->
  <path d="M 480 220 L 510 215 L 540 220 L 565 235 L 585 260 L 595 290 L 595 320 L 585 350 L 565 375 L 540 390 L 510 395 L 485 390 L 465 375 L 450 350 L 445 320 L 448 285 L 460 250 Z" 
        fill="#DEE2E6" stroke="#ADB5BD" stroke-width="1"/>
  
  <!-- Asia -->
  <path d="M 620 100 L 680 95 L 740 105 L 790 125 L 830 155 L 860 190 L 875 225 L 880 260 L 870 290 L 845 315 L 810 330 L 770 335 L 730 330 L 690 315 L 660 290 L 640 260 L 628 225 L 622 185 L 620 145 Z" 
        fill="#DEE2E6" stroke="#ADB5BD" stroke-width="1"/>
  
  <!-- India highlight -->
  <path d="M 720 230 L 745 225 L 765 235 L 778 255 L 782 280 L 775 305 L 760 320 L 740 325 L 720 320 L 705 305 L 698 280 L 702 255 L 712 238 Z" 
        fill="#0066CC" opacity="0.2" stroke="#0066CC" stroke-width="1.5"/>
  
  <!-- Australia -->
  <path d="M 780 350 L 820 348 L 855 355 L 880 370 L 895 390 L 898 415 L 888 435 L 865 448 L 835 452 L 805 448 L 780 435 L 765 415 L 762 390 L 768 368 Z" 
        fill="#DEE2E6" stroke="#ADB5BD" stroke-width="1"/>
  
  <!-- Location Pins with Labels -->
  
  <!-- USA Pin -->
  <g id="usa-pin">
    <circle cx="210" cy="195" r="3" fill="#0066CC"/>
    <circle cx="210" cy="195" r="8" fill="#0066CC" opacity="0.3"/>
    <line x1="210" y1="195" x2="210" y2="180" stroke="#0066CC" stroke-width="2"/>
    <circle cx="210" cy="175" r="10" fill="#0066CC"/>
    <text x="210" y="180" font-family="Inter, Arial" font-size="10" font-weight="700" fill="white" text-anchor="middle">US</text>
  </g>
  
  <!-- Canada Pin -->
  <g id="canada-pin">
    <circle cx="190" cy="140" r="3" fill="#0066CC"/>
    <circle cx="190" cy="140" r="8" fill="#0066CC" opacity="0.3"/>
    <line x1="190" y1="140" x2="190" y2="125" stroke="#0066CC" stroke-width="2"/>
    <circle cx="190" cy="120" r="10" fill="#0066CC"/>
    <text x="190" y="125" font-family="Inter, Arial" font-size="9" font-weight="700" fill="white" text-anchor="middle">CA</text>
  </g>
  
  <!-- EU Pin -->
  <g id="eu-pin">
    <circle cx="520" cy="165" r="3" fill="#0066CC"/>
    <circle cx="520" cy="165" r="8" fill="#0066CC" opacity="0.3"/>
    <line x1="520" y1="165" x2="520" y2="150" stroke="#0066CC" stroke-width="2"/>
    <circle cx="520" cy="145" r="10" fill="#0066CC"/>
    <text x="520" y="150" font-family="Inter, Arial" font-size="10" font-weight="700" fill="white" text-anchor="middle">EU</text>
  </g>
  
  <!-- UK Pin -->
  <g id="uk-pin">
    <circle cx="475" cy="150" r="3" fill="#0066CC"/>
    <circle cx="475" cy="150" r="8" fill="#0066CC" opacity="0.3"/>
    <line x1="475" y1="150" x2="475" y2="135" stroke="#0066CC" stroke-width="2"/>
    <circle cx="475" cy="130" r="10" fill="#0066CC"/>
    <text x="475" y="135" font-family="Inter, Arial" font-size="9" font-weight="700" fill="white" text-anchor="middle">UK</text>
  </g>
  
  <!-- India Pin -->
  <g id="india-pin">
    <circle cx="745" cy="275" r="3" fill="#0066CC"/>
    <circle cx="745" cy="275" r="8" fill="#0066CC" opacity="0.3"/>
    <line x1="745" y1="275" x2="745" y2="260" stroke="#0066CC" stroke-width="2"/>
    <circle cx="745" cy="255" r="10" fill="#0066CC"/>
    <text x="745" y="260" font-family="Inter, Arial" font-size="10" font-weight="700" fill="white" text-anchor="middle">IN</text>
  </g>
  
  <!-- Connection lines from center (subtle) -->
  <g opacity="0.15">
    <line x1="500" y1="250" x2="210" y2="195" stroke="#0066CC" stroke-width="1" stroke-dasharray="3,3"/>
    <line x1="500" y1="250" x2="190" y2="140" stroke="#0066CC" stroke-width="1" stroke-dasharray="3,3"/>
    <line x1="500" y1="250" x2="520" y2="165" stroke="#0066CC" stroke-width="1" stroke-dasharray="3,3"/>
    <line x1="500" y1="250" x2="475" y2="150" stroke="#0066CC" stroke-width="1" stroke-dasharray="3,3"/>
    <line x1="500" y1="250" x2="745" y2="275" stroke="#0066CC" stroke-width="1" stroke-dasharray="3,3"/>
  </g>
  
  <!-- Center point (subtle) -->
  <circle cx="500" cy="250" r="4" fill="#0066CC" opacity="0.4"/>
  
  <!-- PCT label (since it's worldwide) -->
  <g id="pct-label">
    <rect x="430" y="420" width="140" height="35" rx="8" fill="#0066CC" opacity="0.1"/>
    <text x="500" y="442" font-family="Inter, Arial" font-size="14" font-weight="600" fill="#0066CC" text-anchor="middle">PCT - Worldwide Coverage</text>
  </g>
</svg>
